<svg width="100%" viewBox="0 0 680 320" role="img" xmlns="http://www.w3.org/2000/svg">
<title>Watlington High Street illustration</title>
<desc>A stylised illustration of Watlington High Street with colourful shopfronts and 2 High Street highlighted in the centre</desc>

<!-- Sky -->
<rect width="680" height="320" fill="#b8d4e8"/>

<!-- Clouds -->
<ellipse cx="80" cy="60" rx="45" ry="22" fill="white" opacity="0.9"/>
<ellipse cx="110" cy="50" rx="35" ry="20" fill="white" opacity="0.9"/>
<ellipse cx="55" cy="65" rx="30" ry="16" fill="white" opacity="0.85"/>
<ellipse cx="520" cy="45" rx="50" ry="22" fill="white" opacity="0.9"/>
<ellipse cx="555" cy="35" rx="38" ry="20" fill="white" opacity="0.9"/>
<ellipse cx="490" cy="50" rx="32" ry="16" fill="white" opacity="0.85"/>
<ellipse cx="310" cy="30" rx="40" ry="18" fill="white" opacity="0.85"/>
<ellipse cx="340" cy="22" rx="30" ry="16" fill="white" opacity="0.85"/>

<!-- Ground -->
<rect x="0" y="248" width="680" height="72" fill="#8fad6a"/>
<rect x="0" y="248" width="680" height="8" fill="#6b8f4a"/>

<!-- Road -->
<rect x="0" y="256" width="680" height="64" fill="#9ea89a"/>
<rect x="0" y="256" width="680" height="4" fill="#7a8476"/>

<!-- Building 1 - far left, tall dark terracotta -->
<rect x="0" y="120" width="70" height="136" fill="#8B4513"/>
<rect x="5" y="125" width="28" height="40" fill="#c8a882"/>
<rect x="37" y="125" width="28" height="40" fill="#c8a882"/>
<rect x="5" y="175" width="28" height="40" fill="#c8a882"/>
<rect x="37" y="175" width="28" height="40" fill="#c8a882"/>
<rect x="0" y="115" width="70" height="8" fill="#6b3410"/>

<!-- Building 2 - sage green shop -->
<rect x="70" y="148" width="80" height="108" fill="#5a7e52"/>
<rect x="70" y="140" width="80" height="12" fill="#3a5c34"/>
<rect x="75" y="200" width="70" height="56" fill="#4a6a42"/>
<rect x="82" y="205" width="26" height="35" fill="#a8c89a" opacity="0.7"/>
<rect x="117" y="205" width="20" height="35" fill="#a8c89a" opacity="0.7"/>
<rect x="78" y="192" width="64" height="12" fill="#2d4a28"/>
<rect x="148" y="220" width="6" height="36" fill="#5c4a2a"/>
<ellipse cx="151" cy="210" rx="16" ry="18" fill="#3a5c34"/>

<!-- Building 3 - cream/beige -->
<rect x="150" y="135" width="85" height="121" fill="#e8dcc8"/>
<rect x="150" y="128" width="85" height="10" fill="#c8b898"/>
<rect x="158" y="142" width="22" height="28" fill="#b8ccd8" opacity="0.8"/>
<rect x="188" y="142" width="22" height="28" fill="#b8ccd8" opacity="0.8"/>
<rect x="218" y="142" width="12" height="28" fill="#b8ccd8" opacity="0.8"/>
<rect x="155" y="200" width="75" height="56" fill="#d8ccb8"/>
<rect x="160" y="205" width="30" height="40" fill="#a8bcc8" opacity="0.7"/>
<rect x="197" y="205" width="28" height="40" fill="#a8bcc8" opacity="0.7"/>
<rect x="155" y="194" width="75" height="10" fill="#b8a888"/>

<!-- 2 High Street - highlighted centre building -->
<rect x="232" y="108" width="110" height="148" rx="2" fill="#f0c842" opacity="0.25"/>
<rect x="235" y="112" width="106" height="144" fill="#f5f0e8"/>
<rect x="235" y="112" width="106" height="30" fill="#c4673e" opacity="0.12"/>
<rect x="248" y="122" width="24" height="32" fill="#b8ccd8" opacity="0.85"/>
<rect x="283" y="122" width="24" height="32" fill="#b8ccd8" opacity="0.85"/>
<rect x="318" y="122" width="17" height="32" fill="#b8ccd8" opacity="0.85"/>
<rect x="235" y="192" width="106" height="64" fill="#ede0c8"/>
<rect x="240" y="198" width="40" height="46" fill="#9C4A2B" opacity="0.1"/>
<rect x="287" y="198" width="48" height="46" fill="#9C4A2B" opacity="0.1"/>
<rect x="235" y="192" width="6" height="64" fill="#d8ccb8"/>
<rect x="335" y="192" width="6" height="64" fill="#d8ccb8"/>
<rect x="235" y="186" width="106" height="10" fill="#9C4A2B"/>
<rect x="235" y="112" width="106" height="144" fill="none" stroke="#f0c842" stroke-width="2.5"/>

<!-- Building 5 - purple/slate -->
<rect x="341" y="145" width="78" height="111" fill="#7a6a8a"/>
<rect x="341" y="138" width="78" height="10" fill="#5a4a6a"/>
<rect x="349" y="152" width="22" height="26" fill="#c8b8d8" opacity="0.7"/>
<rect x="379" y="152" width="22" height="26" fill="#c8b8d8" opacity="0.7"/>
<rect x="349" y="185" width="22" height="26" fill="#c8b8d8" opacity="0.7"/>
<rect x="379" y="185" width="22" height="26" fill="#c8b8d8" opacity="0.7"/>
<rect x="346" y="210" width="68" height="46" fill="#6a5a7a"/>
<rect x="351" y="215" width="28" height="34" fill="#b8a8c8" opacity="0.5"/>
<rect x="385" y="215" width="22" height="34" fill="#b8a8c8" opacity="0.5"/>

<!-- Building 6 - warm amber -->
<rect x="419" y="130" width="90" height="126" fill="#c8a84a"/>
<rect x="419" y="122" width="90" height="12" fill="#a88830"/>
<rect x="450" y="105" width="14" height="30" fill="#a88830"/>
<rect x="448" y="102" width="18" height="6" fill="#886820"/>
<rect x="428" y="136" width="24" height="30" fill="#e8d898" opacity="0.7"/>
<rect x="460" y="136" width="24" height="30" fill="#e8d898" opacity="0.7"/>
<rect x="492" y="136" width="13" height="30" fill="#e8d898" opacity="0.7"/>
<rect x="424" y="200" width="80" height="56" fill="#b89838"/>
<rect x="429" y="205" width="32" height="42" fill="#f0e8c0" opacity="0.6"/>
<rect x="468" y="205" width="28" height="42" fill="#f0e8c0" opacity="0.6"/>
<rect x="424" y="194" width="80" height="10" fill="#886820"/>
<rect x="407" y="218" width="6" height="38" fill="#5c4a2a"/>
<ellipse cx="410" cy="208" rx="15" ry="17" fill="#3a5c34"/>

<!-- Building 7 - dark green tall -->
<rect x="509" y="110" width="90" height="146" fill="#3a5c34"/>
<rect x="509" y="102" width="90" height="12" fill="#2a4224"/>
<rect x="540" y="92" width="28" height="14" fill="#2a4224"/>
<rect x="518" y="118" width="24" height="30" fill="#a8c898" opacity="0.6"/>
<rect x="550" y="118" width="24" height="30" fill="#a8c898" opacity="0.6"/>
<rect x="582" y="118" width="13" height="30" fill="#a8c898" opacity="0.6"/>
<rect x="518" y="158" width="24" height="28" fill="#a8c898" opacity="0.6"/>
<rect x="550" y="158" width="24" height="28" fill="#a8c898" opacity="0.6"/>
<rect x="582" y="158" width="13" height="28" fill="#a8c898" opacity="0.6"/>
<rect x="514" y="200" width="80" height="56" fill="#2d4a28"/>
<rect x="519" y="205" width="32" height="42" fill="#7aaa6a" opacity="0.4"/>
<rect x="558" y="205" width="28" height="42" fill="#7aaa6a" opacity="0.4"/>
<rect x="514" y="194" width="80" height="10" fill="#1e3218"/>

<!-- Building 8 - far right brick -->
<rect x="599" y="138" width="81" height="118" fill="#9C4A2B"/>
<rect x="599" y="130" width="81" height="12" fill="#7a3820"/>
<rect x="607" y="145" width="24" height="28" fill="#e8c8a8" opacity="0.6"/>
<rect x="640" y="145" width="24" height="28" fill="#e8c8a8" opacity="0.6"/>
<rect x="607" y="182" width="24" height="28" fill="#e8c8a8" opacity="0.6"/>
<rect x="640" y="182" width="24" height="28" fill="#e8c8a8" opacity="0.6"/>
<rect x="622" y="210" width="36" height="46" fill="#7a3820"/>
<rect x="626" y="214" width="13" height="34" fill="#e8c8a8" opacity="0.4"/>
<rect x="641" y="214" width="13" height="34" fill="#e8c8a8" opacity="0.4"/>

<!-- Pavement -->
<rect x="0" y="252" width="680" height="6" fill="#c8c0b0"/>

<!-- Street lamp left -->
<rect x="195" y="190" width="4" height="66" fill="#888"/>
<ellipse cx="197" cy="188" rx="10" ry="5" fill="#aaa"/>
<ellipse cx="197" cy="186" rx="5" ry="3" fill="#ffe88a" opacity="0.8"/>

<!-- Street lamp right -->
<rect x="478" y="190" width="4" height="66" fill="#888"/>
<ellipse cx="480" cy="188" rx="10" ry="5" fill="#aaa"/>
<ellipse cx="480" cy="186" rx="5" ry="3" fill="#ffe88a" opacity="0.8"/>

</svg>
